<svg width="250" height="60" viewBox="0 0 250 60" fill="none" xmlns="http://www.w3.org/2000/svg">
<path d="M35.2586 36.4163C43.2683 36.4163 49.7614 29.9304 49.7614 21.9297C49.7614 13.9289 43.2683 7.44296 35.2586 7.44296C27.249 7.44296 20.7559 13.9289 20.7559 21.9297C20.7559 29.9304 27.249 36.4163 35.2586 36.4163Z" fill="#F96363"/>
<path d="M43.8802 18.7358H38.4845V13.3461H32.061V18.7358H26.6367V25.1522H32.061V30.5419H38.4845V25.1522H43.8802V18.7358Z" fill="#E4E4E6"/>
<path d="M64.7201 41.9772H7.25139C3.25456 41.9772 0 45.2281 0 49.2205V52.7566C0 56.749 3.25456 60 7.25139 60H29.8049C33.8017 60 37.0563 56.749 37.0563 52.7566V51.9581V48.365V45.5133H64.7486C66.8041 45.5133 68.46 47.1958 68.46 49.2205C68.46 51.2737 66.8041 52.9277 64.7486 52.9277H51.3592V56.4638H64.7486C68.7454 56.4638 72 53.2129 72 49.2205C71.9715 45.2281 68.7169 41.9772 64.7201 41.9772ZM33.4877 52.7566C33.4877 54.8099 31.8033 56.4638 29.7764 56.4638H7.22284C5.16733 56.4638 3.5115 54.8099 3.5115 52.7566V49.2205C3.5115 47.1673 5.16733 45.5133 7.22284 45.5133H33.4877V48.365V51.9581V52.7566Z" fill="#1C2359"/>
<path opacity="0.5" d="M58.1247 52.9277H51.3301V56.4639H58.1247V52.9277Z" fill="#E4E4E6"/>
<path opacity="0.5" d="M20.0117 41.9772V45.4848H31.4027H33.4867V48.3365V51.9581V52.2718H37.0268V51.9581V48.3365V45.4848H39.8531H50.5304V41.9772H20.0117Z" fill="#E4E4E6"/>
<path d="M52.3582 1.16922H45.221V3.19393H52.3582C54.4137 3.19393 56.0695 4.87644 56.0695 6.90116V22.3004C56.0695 22.8993 56.0409 23.4981 55.9838 24.097C55.0703 34.7339 46.106 43.0894 35.2289 43.0894C24.3518 43.0894 15.416 34.7339 14.4739 24.097C14.4168 23.4981 14.3883 22.8993 14.3883 22.3004V6.90116C14.3883 4.84793 16.0727 3.19393 18.0996 3.19393H25.2368V1.16922H18.0996C14.9307 1.16922 12.3613 3.73576 12.3613 6.90116V22.3004C12.3613 22.8993 12.3899 23.4981 12.4184 24.097C13.332 35.846 23.2099 45.1141 35.1718 45.1141C47.1623 45.1141 57.0116 35.846 57.9252 24.097C57.9823 23.4981 57.9823 22.8993 57.9823 22.3004V6.90116C58.0965 3.73576 55.5271 1.16922 52.3582 1.16922Z" fill="#E4E4E6"/>
<path opacity="0.3" d="M58.0958 13.289V22.3004C58.0958 22.8992 58.0672 23.4981 58.0387 24.097H56.0117C56.0688 23.4981 56.0974 22.8992 56.0974 22.3004V13.289H58.0958Z" fill="#1C2359"/>
<path opacity="0.3" d="M14.5313 24.097H12.5044C12.4473 23.4981 12.4473 22.8992 12.4473 22.3004V13.289H14.4742V22.3004C14.4457 22.8992 14.4742 23.4981 14.5313 24.097Z" fill="#1C2359"/>
<path d="M35.2572 45.9696C22.1819 45.9696 11.5332 35.3327 11.5332 22.2718V18.0228C11.5332 16.9677 12.3897 16.1407 13.4174 16.1407C14.4737 16.1407 15.3016 16.9962 15.3016 18.0228V22.2718C15.3016 33.2509 24.2374 42.1768 35.2287 42.1768C46.22 42.1768 55.1557 33.2509 55.1557 22.2718V18.0228C55.1557 16.9677 56.0122 16.1407 57.0399 16.1407C58.0963 16.1407 58.9242 16.9962 58.9242 18.0228V22.2718C58.9813 35.3612 48.3326 45.9696 35.2572 45.9696Z" fill="#1C2359"/>
<path d="M40.5391 43.8308C40.5391 46.7395 38.1696 49.0779 35.2862 49.0779C34.7437 49.0779 34.2299 48.9924 33.7445 48.8498C33.4305 48.7642 33.145 48.6502 32.8881 48.5076C31.2037 47.6521 30.0332 45.884 30.0332 43.8308C30.0332 41.806 31.2037 40.038 32.8881 39.154C33.1736 39.0114 33.4591 38.8973 33.7445 38.8118C34.2299 38.6692 34.7437 38.5836 35.2862 38.5836C38.1696 38.5836 40.5391 40.922 40.5391 43.8308Z" fill="#1C2359"/>
<path d="M35.2584 47.6806C37.3869 47.6806 39.1125 45.9569 39.1125 43.8308C39.1125 41.7046 37.3869 39.9809 35.2584 39.9809C33.1298 39.9809 31.4043 41.7046 31.4043 43.8308C31.4043 45.9569 33.1298 47.6806 35.2584 47.6806Z" fill="white"/>
<path d="M37.7131 43.8308C37.7131 45.1996 36.5997 46.2833 35.2579 46.2833C33.8876 46.2833 32.8027 45.1711 32.8027 43.8308C32.8027 42.462 33.9161 41.3783 35.2579 41.3783C36.6283 41.3783 37.7131 42.4905 37.7131 43.8308Z" fill="#1C2359"/>
<path d="M30.3761 1.11217V3.30799C30.3761 3.90685 29.8908 4.39164 29.2913 4.39164H26.4364C25.8369 4.39164 25.3516 3.90685 25.3516 3.30799V1.11217C25.3516 0.513314 25.8369 0.0285248 26.4364 0.0285248H29.2913C29.8623 7.66478e-06 30.3761 0.484797 30.3761 1.11217Z" fill="#1C2359"/>
<path d="M30.3757 1.11217V3.30798C30.3757 3.90684 29.8903 4.39163 29.2908 4.39163H27.1211V0H29.2908C29.8618 0 30.3757 0.484789 30.3757 1.11217Z" fill="#F96363"/>
<path d="M40.168 1.11217V3.30799C40.168 3.90685 40.6533 4.39164 41.2528 4.39164H44.1077C44.7072 4.39164 45.1926 3.90685 45.1926 3.30799V1.11217C45.1926 0.513314 44.7072 0.0285248 44.1077 0.0285248H41.2528C40.6533 7.66478e-06 40.168 0.484797 40.168 1.11217Z" fill="#1C2359"/>
<path d="M40.168 1.11217V3.30798C40.168 3.90684 40.6533 4.39163 41.2528 4.39163H43.4225V0H41.2528C40.6533 0 40.168 0.484789 40.168 1.11217Z" fill="#F96363"/>
<path d="M55.2696 54.7244C55.2696 57.6331 52.9001 59.9715 50.0166 59.9715C49.4742 59.9715 48.9603 59.8859 48.475 59.7434C48.161 59.6578 47.8755 59.5437 47.6185 59.4012C45.9342 58.5456 44.7637 56.7776 44.7637 54.7244C44.7637 52.6996 45.9342 50.9316 47.6185 50.0475C47.904 49.905 48.1895 49.7909 48.475 49.7053C48.9603 49.5628 49.4742 49.4772 50.0166 49.4772C52.9001 49.4772 55.2696 51.8156 55.2696 54.7244Z" fill="#1C2359"/>
<path d="M49.9888 58.5742C52.1174 58.5742 53.8429 56.8506 53.8429 54.7244C53.8429 52.5982 52.1174 50.8746 49.9888 50.8746C47.8603 50.8746 46.1348 52.5982 46.1348 54.7244C46.1348 56.8506 47.8603 58.5742 49.9888 58.5742Z" fill="white"/>
<path d="M52.4436 54.7244C52.4436 56.0932 51.3302 57.1768 49.9884 57.1768C48.6181 57.1768 47.5332 56.0647 47.5332 54.7244C47.5332 53.3555 48.6466 52.2719 49.9884 52.2719C51.3587 52.2719 52.4436 53.3555 52.4436 54.7244Z" fill="#1C2359"/>
<path d="M85.0832 33.2056V8.70563H89.7732L100.203 25.9956H97.7182L107.973 8.70563H112.628L112.698 33.2056H107.378L107.343 16.8606H108.323L100.133 30.6156H97.5782L89.2132 16.8606H90.4032V33.2056H85.0832ZM123.726 18.5756H135.521V22.9856H123.726V18.5756ZM124.146 28.6556H137.481V33.2056H118.511V8.70563H137.026V13.2556H124.146V28.6556ZM141.992 33.2056V8.70563H153.122C155.782 8.70563 158.127 9.21896 160.157 10.2456C162.187 11.249 163.774 12.6606 164.917 14.4806C166.061 16.3006 166.632 18.459 166.632 20.9556C166.632 23.429 166.061 25.5873 164.917 27.4306C163.774 29.2506 162.187 30.674 160.157 31.7006C158.127 32.704 155.782 33.2056 153.122 33.2056H141.992ZM147.662 28.5506H152.842C154.476 28.5506 155.887 28.2473 157.077 27.6406C158.291 27.0106 159.224 26.124 159.877 24.9806C160.554 23.8373 160.892 22.4956 160.892 20.9556C160.892 19.3923 160.554 18.0506 159.877 16.9306C159.224 15.7873 158.291 14.9123 157.077 14.3056C155.887 13.6756 154.476 13.3606 152.842 13.3606H147.662V28.5506ZM182.808 33.6256C180.872 33.6256 179.075 33.3106 177.418 32.6806C175.785 32.0506 174.362 31.164 173.148 30.0206C171.958 28.8773 171.025 27.5356 170.348 25.9956C169.695 24.4556 169.368 22.7756 169.368 20.9556C169.368 19.1356 169.695 17.4556 170.348 15.9156C171.025 14.3756 171.97 13.034 173.183 11.8906C174.397 10.7473 175.82 9.86063 177.453 9.23063C179.087 8.60063 180.86 8.28563 182.773 8.28563C184.71 8.28563 186.483 8.60063 188.093 9.23063C189.727 9.86063 191.138 10.7473 192.328 11.8906C193.542 13.034 194.487 14.3756 195.163 15.9156C195.84 17.4323 196.178 19.1123 196.178 20.9556C196.178 22.7756 195.84 24.4673 195.163 26.0306C194.487 27.5706 193.542 28.9123 192.328 30.0556C191.138 31.1756 189.727 32.0506 188.093 32.6806C186.483 33.3106 184.722 33.6256 182.808 33.6256ZM182.773 28.7956C183.87 28.7956 184.873 28.609 185.783 28.2356C186.717 27.8623 187.533 27.3256 188.233 26.6256C188.933 25.9256 189.47 25.0973 189.843 24.1406C190.24 23.184 190.438 22.1223 190.438 20.9556C190.438 19.789 190.24 18.7273 189.843 17.7706C189.47 16.814 188.933 15.9856 188.233 15.2856C187.557 14.5856 186.752 14.049 185.818 13.6756C184.885 13.3023 183.87 13.1156 182.773 13.1156C181.677 13.1156 180.662 13.3023 179.728 13.6756C178.818 14.049 178.013 14.5856 177.313 15.2856C176.613 15.9856 176.065 16.814 175.668 17.7706C175.295 18.7273 175.108 19.789 175.108 20.9556C175.108 22.099 175.295 23.1606 175.668 24.1406C176.065 25.0973 176.602 25.9256 177.278 26.6256C177.978 27.3256 178.795 27.8623 179.728 28.2356C180.662 28.609 181.677 28.7956 182.773 28.7956ZM207.004 33.2056L196.434 8.70563H202.559L211.799 30.4056H208.194L217.574 8.70563H223.209L212.604 33.2056H207.004ZM221.214 33.2056L232.134 8.70563H237.734L248.689 33.2056H242.739L233.779 11.5756H236.019L227.024 33.2056H221.214ZM226.674 27.9556L228.179 23.6506H240.779L242.319 27.9556H226.674Z" fill="#1C2359"/>
<path d="M85.6016 41.4272L81.8359 51.7944H80.2969L84.6328 40.4194H85.625L85.6016 41.4272ZM88.7578 51.7944L84.9844 41.4272L84.9609 40.4194H85.9531L90.3047 51.7944H88.7578ZM88.5625 47.5834V48.8178H82.1719V47.5834H88.5625ZM93.1797 39.7944V51.7944H91.7266V39.7944H93.1797ZM97.0703 39.7944V51.7944H95.6172V39.7944H97.0703ZM111.008 45.31V46.5366H104.852V45.31H111.008ZM105.086 40.4194V51.7944H103.578V40.4194H105.086ZM112.32 40.4194V51.7944H110.82V40.4194H112.32ZM118.289 51.9506C117.701 51.9506 117.167 51.8517 116.688 51.6537C116.214 51.4506 115.805 51.1668 115.461 50.8022C115.122 50.4376 114.862 50.0053 114.68 49.5053C114.497 49.0053 114.406 48.4584 114.406 47.8647V47.5366C114.406 46.8491 114.508 46.2371 114.711 45.7006C114.914 45.159 115.19 44.7006 115.539 44.3256C115.888 43.9506 116.284 43.6668 116.727 43.4741C117.169 43.2814 117.628 43.185 118.102 43.185C118.706 43.185 119.227 43.2892 119.664 43.4975C120.107 43.7058 120.469 43.9975 120.75 44.3725C121.031 44.7423 121.24 45.1798 121.375 45.685C121.51 46.185 121.578 46.7319 121.578 47.3256V47.9741H115.266V46.7944H120.133V46.685C120.112 46.31 120.034 45.9454 119.898 45.5912C119.768 45.2371 119.56 44.9454 119.273 44.7162C118.987 44.4871 118.596 44.3725 118.102 44.3725C117.773 44.3725 117.471 44.4428 117.195 44.5834C116.919 44.7189 116.682 44.922 116.484 45.1928C116.286 45.4636 116.133 45.7944 116.023 46.185C115.914 46.5756 115.859 47.0261 115.859 47.5366V47.8647C115.859 48.2657 115.914 48.6433 116.023 48.9975C116.138 49.3465 116.302 49.6537 116.516 49.9194C116.734 50.185 116.997 50.3933 117.305 50.5444C117.617 50.6954 117.971 50.7709 118.367 50.7709C118.878 50.7709 119.31 50.6668 119.664 50.4584C120.018 50.2501 120.328 49.9715 120.594 49.6225L121.469 50.3178C121.286 50.5939 121.055 50.8569 120.773 51.1069C120.492 51.3569 120.146 51.56 119.734 51.7162C119.328 51.8725 118.846 51.9506 118.289 51.9506ZM128.25 50.3491V45.9975C128.25 45.6642 128.182 45.3751 128.047 45.1303C127.917 44.8803 127.719 44.6876 127.453 44.5522C127.188 44.4168 126.859 44.3491 126.469 44.3491C126.104 44.3491 125.784 44.4116 125.508 44.5366C125.237 44.6616 125.023 44.8256 124.867 45.0287C124.716 45.2319 124.641 45.4506 124.641 45.685H123.195C123.195 45.3829 123.273 45.0834 123.43 44.7866C123.586 44.4897 123.81 44.2215 124.102 43.9819C124.398 43.7371 124.753 43.5444 125.164 43.4037C125.581 43.2579 126.044 43.185 126.555 43.185C127.169 43.185 127.711 43.2892 128.18 43.4975C128.654 43.7058 129.023 44.0209 129.289 44.4428C129.56 44.8595 129.695 45.3829 129.695 46.0131V49.9506C129.695 50.2319 129.719 50.5314 129.766 50.8491C129.818 51.1668 129.893 51.4402 129.992 51.6694V51.7944H128.484C128.411 51.6277 128.354 51.4064 128.312 51.1303C128.271 50.8491 128.25 50.5886 128.25 50.3491ZM128.5 46.6694L128.516 47.685H127.055C126.643 47.685 126.276 47.7189 125.953 47.7866C125.63 47.8491 125.359 47.9454 125.141 48.0756C124.922 48.2058 124.755 48.3699 124.641 48.5678C124.526 48.7605 124.469 48.9871 124.469 49.2475C124.469 49.5131 124.529 49.7553 124.648 49.9741C124.768 50.1928 124.948 50.3673 125.188 50.4975C125.432 50.6225 125.732 50.685 126.086 50.685C126.529 50.685 126.919 50.5912 127.258 50.4037C127.596 50.2162 127.865 49.9871 128.062 49.7162C128.266 49.4454 128.375 49.1824 128.391 48.9272L129.008 49.6225C128.971 49.8412 128.872 50.0834 128.711 50.3491C128.549 50.6147 128.333 50.8699 128.062 51.1147C127.797 51.3543 127.479 51.5548 127.109 51.7162C126.745 51.8725 126.333 51.9506 125.875 51.9506C125.302 51.9506 124.799 51.8386 124.367 51.6147C123.94 51.3907 123.607 51.0912 123.367 50.7162C123.133 50.336 123.016 49.9116 123.016 49.4428C123.016 48.9897 123.104 48.5912 123.281 48.2475C123.458 47.8985 123.714 47.6095 124.047 47.3803C124.38 47.1459 124.781 46.9689 125.25 46.8491C125.719 46.7293 126.242 46.6694 126.82 46.6694H128.5ZM133.539 39.7944V51.7944H132.086V39.7944H133.539ZM139.398 43.3412V44.4506H134.828V43.3412H139.398ZM136.375 41.2866H137.82V49.7006C137.82 49.9871 137.865 50.2032 137.953 50.3491C138.042 50.4949 138.156 50.5912 138.297 50.6381C138.438 50.685 138.589 50.7084 138.75 50.7084C138.87 50.7084 138.995 50.698 139.125 50.6772C139.26 50.6511 139.362 50.6303 139.43 50.6147L139.438 51.7944C139.323 51.8308 139.172 51.8647 138.984 51.8959C138.802 51.9324 138.581 51.9506 138.32 51.9506C137.966 51.9506 137.641 51.8803 137.344 51.7397C137.047 51.5991 136.81 51.3647 136.633 51.0366C136.461 50.7032 136.375 50.2553 136.375 49.6928V41.2866ZM142.539 39.7944V51.7944H141.094V39.7944H142.539ZM142.195 47.2475L141.594 47.2241C141.599 46.6459 141.685 46.1121 141.852 45.6225C142.018 45.1277 142.253 44.698 142.555 44.3334C142.857 43.9689 143.216 43.6876 143.633 43.4897C144.055 43.2866 144.521 43.185 145.031 43.185C145.448 43.185 145.823 43.2423 146.156 43.3569C146.49 43.4662 146.773 43.6433 147.008 43.8881C147.247 44.1329 147.43 44.4506 147.555 44.8412C147.68 45.2267 147.742 45.698 147.742 46.2553V51.7944H146.289V46.2397C146.289 45.797 146.224 45.4428 146.094 45.1772C145.964 44.9064 145.773 44.711 145.523 44.5912C145.273 44.4662 144.966 44.4037 144.602 44.4037C144.242 44.4037 143.914 44.4793 143.617 44.6303C143.326 44.7814 143.073 44.9897 142.859 45.2553C142.651 45.5209 142.487 45.8256 142.367 46.1694C142.253 46.5079 142.195 46.8673 142.195 47.2475ZM160.961 48.1772H162.461C162.383 48.8959 162.177 49.5392 161.844 50.1069C161.51 50.6746 161.039 51.1251 160.43 51.4584C159.82 51.7866 159.06 51.9506 158.148 51.9506C157.482 51.9506 156.875 51.8256 156.328 51.5756C155.786 51.3256 155.32 50.9715 154.93 50.5131C154.539 50.0496 154.237 49.4949 154.023 48.8491C153.815 48.198 153.711 47.4741 153.711 46.6772V45.5444C153.711 44.7475 153.815 44.0261 154.023 43.3803C154.237 42.7293 154.542 42.172 154.938 41.7084C155.339 41.2449 155.82 40.8881 156.383 40.6381C156.945 40.3881 157.578 40.2631 158.281 40.2631C159.141 40.2631 159.867 40.4246 160.461 40.7475C161.055 41.0704 161.516 41.5183 161.844 42.0912C162.177 42.659 162.383 43.3178 162.461 44.0678H160.961C160.888 43.5366 160.753 43.0808 160.555 42.7006C160.357 42.3152 160.076 42.0183 159.711 41.81C159.346 41.6017 158.87 41.4975 158.281 41.4975C157.776 41.4975 157.331 41.5939 156.945 41.7866C156.565 41.9793 156.245 42.2527 155.984 42.6069C155.729 42.961 155.536 43.3855 155.406 43.8803C155.276 44.3751 155.211 44.9246 155.211 45.5287V46.6772C155.211 47.2345 155.268 47.7579 155.383 48.2475C155.503 48.7371 155.682 49.1668 155.922 49.5366C156.161 49.9064 156.466 50.198 156.836 50.4116C157.206 50.6199 157.643 50.7241 158.148 50.7241C158.789 50.7241 159.299 50.6225 159.68 50.4194C160.06 50.2162 160.346 49.9246 160.539 49.5444C160.737 49.1642 160.878 48.7084 160.961 48.1772ZM169.281 50.3491V45.9975C169.281 45.6642 169.214 45.3751 169.078 45.1303C168.948 44.8803 168.75 44.6876 168.484 44.5522C168.219 44.4168 167.891 44.3491 167.5 44.3491C167.135 44.3491 166.815 44.4116 166.539 44.5366C166.268 44.6616 166.055 44.8256 165.898 45.0287C165.747 45.2319 165.672 45.4506 165.672 45.685H164.227C164.227 45.3829 164.305 45.0834 164.461 44.7866C164.617 44.4897 164.841 44.2215 165.133 43.9819C165.43 43.7371 165.784 43.5444 166.195 43.4037C166.612 43.2579 167.076 43.185 167.586 43.185C168.201 43.185 168.742 43.2892 169.211 43.4975C169.685 43.7058 170.055 44.0209 170.32 44.4428C170.591 44.8595 170.727 45.3829 170.727 46.0131V49.9506C170.727 50.2319 170.75 50.5314 170.797 50.8491C170.849 51.1668 170.924 51.4402 171.023 51.6694V51.7944H169.516C169.443 51.6277 169.385 51.4064 169.344 51.1303C169.302 50.8491 169.281 50.5886 169.281 50.3491ZM169.531 46.6694L169.547 47.685H168.086C167.674 47.685 167.307 47.7189 166.984 47.7866C166.661 47.8491 166.391 47.9454 166.172 48.0756C165.953 48.2058 165.786 48.3699 165.672 48.5678C165.557 48.7605 165.5 48.9871 165.5 49.2475C165.5 49.5131 165.56 49.7553 165.68 49.9741C165.799 50.1928 165.979 50.3673 166.219 50.4975C166.464 50.6225 166.763 50.685 167.117 50.685C167.56 50.685 167.951 50.5912 168.289 50.4037C168.628 50.2162 168.896 49.9871 169.094 49.7162C169.297 49.4454 169.406 49.1824 169.422 48.9272L170.039 49.6225C170.003 49.8412 169.904 50.0834 169.742 50.3491C169.581 50.6147 169.365 50.8699 169.094 51.1147C168.828 51.3543 168.51 51.5548 168.141 51.7162C167.776 51.8725 167.365 51.9506 166.906 51.9506C166.333 51.9506 165.831 51.8386 165.398 51.6147C164.971 51.3907 164.638 51.0912 164.398 50.7162C164.164 50.336 164.047 49.9116 164.047 49.4428C164.047 48.9897 164.135 48.5912 164.312 48.2475C164.49 47.8985 164.745 47.6095 165.078 47.3803C165.411 47.1459 165.812 46.9689 166.281 46.8491C166.75 46.7293 167.273 46.6694 167.852 46.6694H169.531ZM174.445 44.6694V51.7944H173V43.3412H174.406L174.445 44.6694ZM177.086 43.2944L177.078 44.6381C176.958 44.6121 176.844 44.5965 176.734 44.5912C176.63 44.5808 176.51 44.5756 176.375 44.5756C176.042 44.5756 175.747 44.6277 175.492 44.7319C175.237 44.836 175.021 44.9819 174.844 45.1694C174.667 45.3569 174.526 45.5808 174.422 45.8412C174.323 46.0965 174.258 46.3777 174.227 46.685L173.82 46.9194C173.82 46.409 173.87 45.9298 173.969 45.4819C174.073 45.034 174.232 44.6381 174.445 44.2944C174.659 43.9454 174.93 43.6746 175.258 43.4819C175.591 43.284 175.987 43.185 176.445 43.185C176.549 43.185 176.669 43.198 176.805 43.2241C176.94 43.2449 177.034 43.2683 177.086 43.2944ZM181.773 51.9506C181.185 51.9506 180.651 51.8517 180.172 51.6537C179.698 51.4506 179.289 51.1668 178.945 50.8022C178.607 50.4376 178.346 50.0053 178.164 49.5053C177.982 49.0053 177.891 48.4584 177.891 47.8647V47.5366C177.891 46.8491 177.992 46.2371 178.195 45.7006C178.398 45.159 178.674 44.7006 179.023 44.3256C179.372 43.9506 179.768 43.6668 180.211 43.4741C180.654 43.2814 181.112 43.185 181.586 43.185C182.19 43.185 182.711 43.2892 183.148 43.4975C183.591 43.7058 183.953 43.9975 184.234 44.3725C184.516 44.7423 184.724 45.1798 184.859 45.685C184.995 46.185 185.062 46.7319 185.062 47.3256V47.9741H178.75V46.7944H183.617V46.685C183.596 46.31 183.518 45.9454 183.383 45.5912C183.253 45.2371 183.044 44.9454 182.758 44.7162C182.471 44.4871 182.081 44.3725 181.586 44.3725C181.258 44.3725 180.956 44.4428 180.68 44.5834C180.404 44.7189 180.167 44.922 179.969 45.1928C179.771 45.4636 179.617 45.7944 179.508 46.185C179.398 46.5756 179.344 47.0261 179.344 47.5366V47.8647C179.344 48.2657 179.398 48.6433 179.508 48.9975C179.622 49.3465 179.786 49.6537 180 49.9194C180.219 50.185 180.482 50.3933 180.789 50.5444C181.102 50.6954 181.456 50.7709 181.852 50.7709C182.362 50.7709 182.794 50.6668 183.148 50.4584C183.503 50.2501 183.812 49.9715 184.078 49.6225L184.953 50.3178C184.771 50.5939 184.539 50.8569 184.258 51.1069C183.977 51.3569 183.63 51.56 183.219 51.7162C182.812 51.8725 182.331 51.9506 181.773 51.9506ZM197 48.9194C197 48.6537 196.958 48.4194 196.875 48.2162C196.797 48.0079 196.656 47.8204 196.453 47.6537C196.255 47.4871 195.979 47.3282 195.625 47.1772C195.276 47.0261 194.833 46.8725 194.297 46.7162C193.734 46.5496 193.227 46.3647 192.773 46.1616C192.32 45.9532 191.932 45.7162 191.609 45.4506C191.286 45.185 191.039 44.8803 190.867 44.5366C190.695 44.1928 190.609 43.7996 190.609 43.3569C190.609 42.9142 190.701 42.5053 190.883 42.1303C191.065 41.7553 191.326 41.4298 191.664 41.1537C192.008 40.8725 192.417 40.6537 192.891 40.4975C193.365 40.3412 193.893 40.2631 194.477 40.2631C195.331 40.2631 196.055 40.4272 196.648 40.7553C197.247 41.0782 197.703 41.5027 198.016 42.0287C198.328 42.5496 198.484 43.1069 198.484 43.7006H196.984C196.984 43.2735 196.893 42.8959 196.711 42.5678C196.529 42.2345 196.253 41.9741 195.883 41.7866C195.513 41.5939 195.044 41.4975 194.477 41.4975C193.94 41.4975 193.497 41.5782 193.148 41.7397C192.799 41.9011 192.539 42.1199 192.367 42.3959C192.201 42.672 192.117 42.9871 192.117 43.3412C192.117 43.5808 192.167 43.7996 192.266 43.9975C192.37 44.1902 192.529 44.3699 192.742 44.5366C192.961 44.7032 193.237 44.8569 193.57 44.9975C193.909 45.1381 194.312 45.2735 194.781 45.4037C195.427 45.586 195.984 45.7892 196.453 46.0131C196.922 46.2371 197.307 46.4897 197.609 46.7709C197.917 47.047 198.143 47.3621 198.289 47.7162C198.44 48.0652 198.516 48.461 198.516 48.9037C198.516 49.3673 198.422 49.7866 198.234 50.1616C198.047 50.5366 197.779 50.8569 197.43 51.1225C197.081 51.3881 196.661 51.5939 196.172 51.7397C195.688 51.8803 195.146 51.9506 194.547 51.9506C194.021 51.9506 193.503 51.8777 192.992 51.7319C192.487 51.586 192.026 51.3673 191.609 51.0756C191.198 50.784 190.867 50.4246 190.617 49.9975C190.372 49.5652 190.25 49.0652 190.25 48.4975H191.75C191.75 48.8881 191.826 49.2241 191.977 49.5053C192.128 49.7814 192.333 50.0105 192.594 50.1928C192.859 50.3751 193.159 50.5105 193.492 50.5991C193.831 50.6824 194.182 50.7241 194.547 50.7241C195.073 50.7241 195.518 50.6511 195.883 50.5053C196.247 50.3595 196.523 50.1511 196.711 49.8803C196.904 49.6095 197 49.2892 197 48.9194ZM203.727 51.9506C203.138 51.9506 202.604 51.8517 202.125 51.6537C201.651 51.4506 201.242 51.1668 200.898 50.8022C200.56 50.4376 200.299 50.0053 200.117 49.5053C199.935 49.0053 199.844 48.4584 199.844 47.8647V47.5366C199.844 46.8491 199.945 46.2371 200.148 45.7006C200.352 45.159 200.628 44.7006 200.977 44.3256C201.326 43.9506 201.721 43.6668 202.164 43.4741C202.607 43.2814 203.065 43.185 203.539 43.185C204.143 43.185 204.664 43.2892 205.102 43.4975C205.544 43.7058 205.906 43.9975 206.188 44.3725C206.469 44.7423 206.677 45.1798 206.812 45.685C206.948 46.185 207.016 46.7319 207.016 47.3256V47.9741H200.703V46.7944H205.57V46.685C205.549 46.31 205.471 45.9454 205.336 45.5912C205.206 45.2371 204.997 44.9454 204.711 44.7162C204.424 44.4871 204.034 44.3725 203.539 44.3725C203.211 44.3725 202.909 44.4428 202.633 44.5834C202.357 44.7189 202.12 44.922 201.922 45.1928C201.724 45.4636 201.57 45.7944 201.461 46.185C201.352 46.5756 201.297 47.0261 201.297 47.5366V47.8647C201.297 48.2657 201.352 48.6433 201.461 48.9975C201.576 49.3465 201.74 49.6537 201.953 49.9194C202.172 50.185 202.435 50.3933 202.742 50.5444C203.055 50.6954 203.409 50.7709 203.805 50.7709C204.315 50.7709 204.747 50.6668 205.102 50.4584C205.456 50.2501 205.766 49.9715 206.031 49.6225L206.906 50.3178C206.724 50.5939 206.492 50.8569 206.211 51.1069C205.93 51.3569 205.583 51.56 205.172 51.7162C204.766 51.8725 204.284 51.9506 203.727 51.9506ZM210.148 44.6694V51.7944H208.703V43.3412H210.109L210.148 44.6694ZM212.789 43.2944L212.781 44.6381C212.661 44.6121 212.547 44.5965 212.438 44.5912C212.333 44.5808 212.214 44.5756 212.078 44.5756C211.745 44.5756 211.451 44.6277 211.195 44.7319C210.94 44.836 210.724 44.9819 210.547 45.1694C210.37 45.3569 210.229 45.5808 210.125 45.8412C210.026 46.0965 209.961 46.3777 209.93 46.685L209.523 46.9194C209.523 46.409 209.573 45.9298 209.672 45.4819C209.776 45.034 209.935 44.6381 210.148 44.2944C210.362 43.9454 210.633 43.6746 210.961 43.4819C211.294 43.284 211.69 43.185 212.148 43.185C212.253 43.185 212.372 43.198 212.508 43.2241C212.643 43.2449 212.737 43.2683 212.789 43.2944ZM216.836 50.4897L219.148 43.3412H220.625L217.586 51.7944H216.617L216.836 50.4897ZM214.906 43.3412L217.289 50.5287L217.453 51.7944H216.484L213.422 43.3412H214.906ZM223.586 43.3412V51.7944H222.133V43.3412H223.586ZM222.023 41.0991C222.023 40.8647 222.094 40.6668 222.234 40.5053C222.38 40.3439 222.594 40.2631 222.875 40.2631C223.151 40.2631 223.362 40.3439 223.508 40.5053C223.659 40.6668 223.734 40.8647 223.734 41.0991C223.734 41.323 223.659 41.5157 223.508 41.6772C223.362 41.8334 223.151 41.9116 222.875 41.9116C222.594 41.9116 222.38 41.8334 222.234 41.6772C222.094 41.5157 222.023 41.323 222.023 41.0991ZM229.289 50.7631C229.633 50.7631 229.951 50.6928 230.242 50.5522C230.534 50.4116 230.773 50.2189 230.961 49.9741C231.148 49.7241 231.255 49.4402 231.281 49.1225H232.656C232.63 49.6225 232.461 50.0886 232.148 50.5209C231.841 50.948 231.438 51.2944 230.938 51.56C230.438 51.8204 229.888 51.9506 229.289 51.9506C228.654 51.9506 228.099 51.8386 227.625 51.6147C227.156 51.3907 226.766 51.0834 226.453 50.6928C226.146 50.3022 225.914 49.8543 225.758 49.3491C225.607 48.8386 225.531 48.2996 225.531 47.7319V47.4037C225.531 46.836 225.607 46.2996 225.758 45.7944C225.914 45.284 226.146 44.8334 226.453 44.4428C226.766 44.0522 227.156 43.7449 227.625 43.5209C228.099 43.297 228.654 43.185 229.289 43.185C229.951 43.185 230.529 43.3204 231.023 43.5912C231.518 43.8569 231.906 44.2215 232.188 44.685C232.474 45.1433 232.63 45.6642 232.656 46.2475H231.281C231.255 45.8985 231.156 45.5834 230.984 45.3022C230.818 45.0209 230.589 44.797 230.297 44.6303C230.01 44.4584 229.674 44.3725 229.289 44.3725C228.846 44.3725 228.474 44.461 228.172 44.6381C227.875 44.81 227.638 45.0444 227.461 45.3412C227.289 45.6329 227.164 45.9584 227.086 46.3178C227.013 46.672 226.977 47.034 226.977 47.4037V47.7319C226.977 48.1017 227.013 48.4662 227.086 48.8256C227.159 49.185 227.281 49.5105 227.453 49.8022C227.63 50.0939 227.867 50.3282 228.164 50.5053C228.466 50.6772 228.841 50.7631 229.289 50.7631ZM237.789 51.9506C237.201 51.9506 236.667 51.8517 236.188 51.6537C235.714 51.4506 235.305 51.1668 234.961 50.8022C234.622 50.4376 234.362 50.0053 234.18 49.5053C233.997 49.0053 233.906 48.4584 233.906 47.8647V47.5366C233.906 46.8491 234.008 46.2371 234.211 45.7006C234.414 45.159 234.69 44.7006 235.039 44.3256C235.388 43.9506 235.784 43.6668 236.227 43.4741C236.669 43.2814 237.128 43.185 237.602 43.185C238.206 43.185 238.727 43.2892 239.164 43.4975C239.607 43.7058 239.969 43.9975 240.25 44.3725C240.531 44.7423 240.74 45.1798 240.875 45.685C241.01 46.185 241.078 46.7319 241.078 47.3256V47.9741H234.766V46.7944H239.633V46.685C239.612 46.31 239.534 45.9454 239.398 45.5912C239.268 45.2371 239.06 44.9454 238.773 44.7162C238.487 44.4871 238.096 44.3725 237.602 44.3725C237.273 44.3725 236.971 44.4428 236.695 44.5834C236.419 44.7189 236.182 44.922 235.984 45.1928C235.786 45.4636 235.633 45.7944 235.523 46.185C235.414 46.5756 235.359 47.0261 235.359 47.5366V47.8647C235.359 48.2657 235.414 48.6433 235.523 48.9975C235.638 49.3465 235.802 49.6537 236.016 49.9194C236.234 50.185 236.497 50.3933 236.805 50.5444C237.117 50.6954 237.471 50.7709 237.867 50.7709C238.378 50.7709 238.81 50.6668 239.164 50.4584C239.518 50.2501 239.828 49.9715 240.094 49.6225L240.969 50.3178C240.786 50.5939 240.555 50.8569 240.273 51.1069C239.992 51.3569 239.646 51.56 239.234 51.7162C238.828 51.8725 238.346 51.9506 237.789 51.9506ZM247.688 49.5522C247.688 49.3439 247.641 49.1511 247.547 48.9741C247.458 48.7918 247.273 48.6277 246.992 48.4819C246.716 48.3308 246.299 48.2006 245.742 48.0912C245.273 47.9923 244.849 47.8751 244.469 47.7397C244.094 47.6043 243.773 47.4402 243.508 47.2475C243.247 47.0548 243.047 46.8282 242.906 46.5678C242.766 46.3074 242.695 46.0027 242.695 45.6537C242.695 45.3204 242.768 45.0053 242.914 44.7084C243.065 44.4116 243.276 44.1485 243.547 43.9194C243.823 43.6902 244.154 43.5105 244.539 43.3803C244.924 43.2501 245.354 43.185 245.828 43.185C246.505 43.185 247.083 43.3048 247.562 43.5444C248.042 43.784 248.409 44.1043 248.664 44.5053C248.919 44.9011 249.047 45.3412 249.047 45.8256H247.602C247.602 45.5912 247.531 45.3647 247.391 45.1459C247.255 44.922 247.055 44.7371 246.789 44.5912C246.529 44.4454 246.208 44.3725 245.828 44.3725C245.427 44.3725 245.102 44.435 244.852 44.56C244.607 44.6798 244.427 44.8334 244.312 45.0209C244.203 45.2084 244.148 45.4064 244.148 45.6147C244.148 45.7709 244.174 45.9116 244.227 46.0366C244.284 46.1564 244.383 46.2683 244.523 46.3725C244.664 46.4715 244.862 46.5652 245.117 46.6537C245.372 46.7423 245.698 46.8308 246.094 46.9194C246.786 47.0756 247.357 47.2631 247.805 47.4819C248.253 47.7006 248.586 47.9689 248.805 48.2866C249.023 48.6043 249.133 48.9897 249.133 49.4428C249.133 49.8126 249.055 50.1511 248.898 50.4584C248.747 50.7657 248.526 51.0314 248.234 51.2553C247.948 51.4741 247.604 51.6459 247.203 51.7709C246.807 51.8907 246.362 51.9506 245.867 51.9506C245.122 51.9506 244.492 51.8178 243.977 51.5522C243.461 51.2866 243.07 50.9428 242.805 50.5209C242.539 50.0991 242.406 49.6537 242.406 49.185H243.859C243.88 49.5808 243.995 49.8959 244.203 50.1303C244.411 50.3595 244.667 50.5235 244.969 50.6225C245.271 50.7162 245.57 50.7631 245.867 50.7631C246.263 50.7631 246.594 50.711 246.859 50.6069C247.13 50.5027 247.336 50.3595 247.477 50.1772C247.617 49.9949 247.688 49.7866 247.688 49.5522Z" fill="#1C2359"/>
</svg>
